<?xml version="1.0" standalone="no"?>
<!DOCTYPE svg PUBLIC "-//W3C//DTD SVG 20010904//EN"
 "http://www.w3.org/TR/2001/REC-SVG-20010904/DTD/svg10.dtd">
<svg version="1.0" xmlns="http://www.w3.org/2000/svg"
 width="512.000000pt" height="512.000000pt" viewBox="0 0 512.000000 512.000000"
 preserveAspectRatio="xMidYMid meet">

<g transform="translate(0.000000,512.000000) scale(0.100000,-0.100000)"
fill="#000000" stroke="none">
<path d="M2380 4794 c-957 -87 -1751 -758 -1988 -1679 -53 -208 -66 -317 -66
-555 0 -157 5 -246 18 -330 127 -816 666 -1480 1441 -1777 90 -34 313 -96 393
-108 l42 -7 0 856 0 856 -260 0 -260 0 0 305 0 305 259 0 258 0 6 293 c4 220
9 311 22 367 52 232 187 411 380 501 139 65 175 71 430 76 127 3 272 2 323 -2
l92 -7 0 -278 0 -278 -217 -4 c-142 -3 -230 -10 -253 -18 -54 -20 -98 -57
-123 -103 -21 -40 -22 -55 -25 -289 l-3 -248 296 0 297 0 -6 -32 c-3 -18 -19
-139 -36 -268 -16 -129 -33 -252 -36 -272 l-6 -38 -264 0 -264 0 0 -861 0
-862 58 7 c78 9 261 51 352 80 382 123 719 341 983 635 298 331 479 718 553
1176 25 153 25 486 1 645 -139 899 -788 1621 -1662 1850 -157 41 -313 61 -505
64 -102 2 -205 2 -230 0z"/>
</g>
</svg>
