<?xml version="1.0" standalone="no"?>
<!DOCTYPE svg PUBLIC "-//W3C//DTD SVG 20010904//EN"
 "http://www.w3.org/TR/2001/REC-SVG-20010904/DTD/svg10.dtd">
<svg version="1.0" xmlns="http://www.w3.org/2000/svg"
 width="512.000000pt" height="512.000000pt" viewBox="0 0 512.000000 512.000000"
 preserveAspectRatio="xMidYMid meet">

<g transform="translate(0.000000,512.000000) scale(0.100000,-0.100000)"
fill="#000000" stroke="none">
<path d="M413 4465 c-144 -31 -287 -140 -351 -266 -65 -130 -63 -50 -60 -1747
l3 -1537 31 -65 c53 -110 140 -178 256 -200 28 -6 235 -10 459 -10 l409 0 2
991 3 990 695 -521 c382 -286 700 -518 706 -516 7 3 321 236 698 518 l685 513
1 754 c0 601 -3 751 -12 744 -7 -6 -320 -240 -696 -522 l-682 -511 -878 658
c-482 363 -901 671 -931 686 -102 52 -221 66 -338 41z"/>
<path d="M4538 3047 l-577 -432 -1 -987 0 -988 398 0 c229 0 424 5 462 11 122
19 226 102 272 217 l23 57 3 1110 c1 611 1 1185 0 1277 l-3 167 -577 -432z"/>
</g>
</svg>
